HIERARCHY
ROOT root
{
	OFFSET	0	13.1	24.9
	CHANNELS 6  Xposition Yposition Zposition Xrotation Yrotation Zrotation
	JOINT spine_1
	{
		OFFSET	0	9.99999	0
		CHANNELS 3  Xrotation Yrotation Zrotation
		JOINT spine_2
		{
			OFFSET	0	112	-10
			CHANNELS 3  Xrotation Yrotation Zrotation
			JOINT spine_3
			{
				OFFSET	0	206.5	19.3
				CHANNELS 3  Xrotation Yrotation Zrotation
				JOINT spine_4
				{
					OFFSET	0	110.4	14.6
					CHANNELS 3  Xrotation Yrotation Zrotation
					JOINT neck_1
					{
						OFFSET	0	71.8	-50.3
						CHANNELS 3  Xrotation Yrotation Zrotation
						JOINT neck_2
						{
							OFFSET	0	86.2	-25.8
							CHANNELS 3  Xrotation Yrotation Zrotation
							JOINT head_ee
							{
								OFFSET	0	179.8	-8.7
								CHANNELS 3  Xrotation Yrotation Zrotation
								End Site
								{
									OFFSET	1	0	0
								}
							}
						}
					}
					JOINT left_clavicle
					{
						OFFSET	-43.2	22.4	-70.8
						CHANNELS 3  Xrotation Yrotation Zrotation
						JOINT left_shoulder
						{
							OFFSET	-93.9	-5.79999	48.7
							CHANNELS 3  Xrotation Yrotation Zrotation
							JOINT left_elbow
							{
								OFFSET	-291.4	-30.8	15.2
								CHANNELS 3  Xrotation Yrotation Zrotation
								JOINT left_lowarm_twist
								{
									OFFSET	-110.7	-3.89999	13.6
									CHANNELS 3  Xrotation Yrotation Zrotation
									JOINT left_hand
									{
										OFFSET	-110.7	-3.89999	13.6
										CHANNELS 3  Xrotation Yrotation Zrotation
										JOINT left_ee
										{
											OFFSET	-80.8	-5.10001	12.1
											CHANNELS 3  Xrotation Yrotation Zrotation
											End Site
											{
												OFFSET	1	0	0
											}
										}
									}
								}
							}
						}
					}
					JOINT right_clavicle
					{
						OFFSET	43.2	22.4	-70.8
						CHANNELS 3  Xrotation Yrotation Zrotation
						JOINT right_shoulder
						{
							OFFSET	93.9	-5.79999	48.7
							CHANNELS 3  Xrotation Yrotation Zrotation
							JOINT right_elbow
							{
								OFFSET	291.4	-30.8	15.2
								CHANNELS 3  Xrotation Yrotation Zrotation
								JOINT right_lowarm_twist
								{
									OFFSET	110.7	-3.89999	13.6
									CHANNELS 3  Xrotation Yrotation Zrotation
									JOINT right_hand
									{
										OFFSET	110.7	-3.89999	13.6
										CHANNELS 3  Xrotation Yrotation Zrotation
										JOINT right_ee
										{
											OFFSET	80.8	-5.10001	12.1
											CHANNELS 3  Xrotation Yrotation Zrotation
											End Site
											{
												OFFSET	1	0	0
											}
										}
									}
								}
							}
						}
					}
				}
			}
		}
	}
	JOINT left_hip
	{
		OFFSET	-82.8	-127.5	0.300001
		CHANNELS 3  Xrotation Yrotation Zrotation
		JOINT left_knee
		{
			OFFSET	-28.2	-396.7	2.2
			CHANNELS 3  Xrotation Yrotation Zrotation
			JOINT left_ankle
			{
				OFFSET	-11.7	-411.3	35.4
				CHANNELS 3  Xrotation Yrotation Zrotation
				JOINT left_toes
				{
					OFFSET	0	-60	-88.6
					CHANNELS 3  Xrotation Yrotation Zrotation
					JOINT left_foot_ee
					{
						OFFSET	-22.5	-16.5	-42.2
						CHANNELS 3  Xrotation Yrotation Zrotation
						End Site
						{
							OFFSET	1	0	0
						}
					}
				}
			}
		}
	}
	JOINT right_hip
	{
		OFFSET	82.8	-127.5	0.300001
		CHANNELS 3  Xrotation Yrotation Zrotation
		JOINT right_knee
		{
			OFFSET	28.2	-396.7	2.2
			CHANNELS 3  Xrotation Yrotation Zrotation
			JOINT right_ankle
			{
				OFFSET	11.7	-411.3	35.4
				CHANNELS 3  Xrotation Yrotation Zrotation
				JOINT right_toes
				{
					OFFSET	0	-60	-88.6
					CHANNELS 3  Xrotation Yrotation Zrotation
					JOINT right_foot_ee
					{
						OFFSET	22.5	-16.5	-42.2
						CHANNELS 3  Xrotation Yrotation Zrotation
						End Site
						{
							OFFSET	1	0	0
						}
					}
				}
			}
		}
	}
}
MOTION
Frames: 15
Frame Time: 0.02
3280.1 705.143 -784.759 -14.5089 52.7621 11.9533 0.527409 0.142222 0.96887 0.527928 0.080285 0.975955 0.529493 -0.117659 0.972158 0.528176 0.037344 0.978539 7.30927 17.5682 1.04007 8.52105 28.7199 1.38034 -0.0 0.0 -0.0 0.371931 16.2241 2.48884 4.12464 -31.0116 61.5885 3.13488 -57.2084 1.70979 -4.84151 -0.19554 0.586992 -1.29949 -7.30046 -11.9557 -0.0 0.0 -0.0 9.31867 9.51559 -18.3584 -26.942 25.0452 -62.8969 0.389433 10.9192 -0.0372212 28.6666 -0.105638 3.62246 0.376259 -14.1633 -8.17546 0.0 0.0 0.0 -4.65977 19.8973 -0.513984 -23.3201 0.24146 3.54586 34.8369 -7.77156 -4.50363 -22.9877 0.0 0.0 -0.0 0.0 -0.0 37.3637 -0.419667 -2.81282 -4.40295 -0.156077 -0.657529 -13.4035 18.4509 -2.25531 -3.81916 0.0 0.0 0.0 0.0 0.0 
3263.24 703.295 -794.264 -14.4432 51.9675 11.7267 0.300474 0.188195 1.06605 0.301098 0.119982 1.07586 0.303645 -0.103114 1.07761 0.302031 0.0683578 1.08037 6.75023 15.7276 -2.34127 8.06851 28.7025 -2.5677 -0.0 0.0 -0.0 0.449512 17.1076 2.70078 3.06254 -30.5849 61.359 3.17949 -57.5755 1.74737 -7.00358 -0.298766 0.843445 -0.986459 -10.5267 -11.1985 -0.0 0.0 -0.0 8.51627 9.27848 -16.6363 -23.3329 25.6204 -64.1486 0.465925 12.9968 -0.0530725 28.6236 -0.106839 3.6171 0.558158 -14.5875 -9.48275 0.0 0.0 0.0 -4.53384 17.3641 -0.352226 -27.5804 0.129112 4.18986 33.8742 -8.19294 -4.41619 -22.1929 0.0 0.0 -0.0 0.0 -0.0 37.6415 -2.05136 -2.54545 -6.15377 -0.204013 -0.921935 -11.3364 19.976 -1.92993 -5.29953 0.0 0.0 0.0 0.0 0.0 
3242.87 707.425 -805.097 -14.2382 52.029 11.0482 0.126082 0.291012 1.29252 0.126987 0.208183 1.30841 0.132255 -0.0684038 1.3231 0.129839 0.141396 1.3173 7.83702 14.8025 -3.56096 9.24896 27.9867 -4.24392 -0.0 0.0 -0.0 0.789026 17.8522 3.29455 2.13986 -30.2256 61.5455 3.05685 -56.5481 1.64444 -8.05459 -0.352431 0.966679 -0.802662 -9.67779 -9.57299 -0.0 0.0 -0.0 8.42128 9.73203 -16.4218 -20.2964 25.0874 -65.5689 0.384357 10.7803 -0.0362658 28.1602 -0.119543 3.55927 -0.0976267 -14.4701 -5.32136 0.0 0.0 0.0 -4.70789 16.6105 0.539397 -28.0271 0.114562 4.25688 31.408 -6.65278 -4.13626 -22.6268 0.0 0.0 -0.0 0.0 -0.0 38.0812 -1.9368 -1.5107 -9.76067 -0.27718 -1.4705 -9.71563 19.1762 -1.63787 -5.54109 0.0 0.0 0.0 0.0 0.0 
3225.85 711.923 -817.411 -12.7733 49.7193 8.92075 -0.0547028 0.371444 1.35239 -0.0537303 0.284644 1.37328 -0.0462534 -0.0114505 1.40242 -0.0489364 0.210157 1.38663 7.7706 14.2346 -2.06403 8.87423 25.7205 -2.367 -0.0 0.0 -0.0 0.465966 19.7326 2.98915 2.24773 -28.4748 62.419 2.80977 -54.2943 1.44096 -7.49403 -0.323526 0.901072 -0.616408 -4.91769 -6.24949 -0.0 0.0 -0.0 9.72725 9.81645 -19.2407 -19.0602 25.6126 -63.6123 0.19583 5.54098 -0.00947662 27.5277 -0.136127 3.48017 -0.434052 -11.4097 -1.95074 0.0 0.0 0.0 -4.37463 15.5614 2.54493 -30.1087 0.039888 4.5676 29.6724 0.400193 -3.87246 -22.8487 0.0 0.0 -0.0 0.0 -0.0 37.102 -2.7649 -1.89773 -12.4662 -0.309322 -1.88436 -7.35398 14.6017 -1.18861 -4.42739 0.0 0.0 0.0 0.0 0.0 
3206.4 709.989 -834.687 -13.4039 50.3759 9.59375 -0.0443552 0.386901 1.59828 -0.042979 0.284428 1.61965 -0.034066 -0.0632927 1.64321 -0.0377801 0.196981 1.63259 8.41061 13.4925 -3.18941 9.58541 25.3532 -3.83554 -0.0 0.0 -0.0 0.353169 18.4461 2.6907 1.95961 -27.1397 63.0088 2.52353 -51.3337 1.21284 -9.25591 -0.416535 1.10632 -0.358434 -14.882 -8.76141 -0.0 0.0 -0.0 9.26804 9.87114 -18.2426 -16.9372 25.8924 -65.4024 0.236369 6.67853 -0.0137915 27.7365 -0.130748 3.50631 -0.462123 -12.9176 -2.40314 0.0 0.0 0.0 -3.18707 12.369 1.23787 -32.9886 -0.0819579 4.99269 25.1406 -3.98242 -3.40508 -22.8368 0.0 0.0 -0.0 0.0 -0.0 37.4198 -4.05744 -1.60219 -16.0288 -0.321787 -2.43073 -3.05336 14.8179 -0.489991 -3.18554 0.0 0.0 0.0 0.0 0.0 
3193.62 713.757 -851.541 -12.5342 50.2499 8.86159 0.0440496 0.236082 1.95241 0.0461637 0.111391 1.96347 0.0510129 -0.302136 1.94329 0.0457424 0.00849996 1.96661 10.0303 13.0418 -3.43123 11.2464 24.5273 -4.38898 -0.0 0.0 -0.0 0.389109 16.8235 2.57801 0.901797 -25.7584 62.4062 2.10877 -46.2445 0.900516 -9.38907 -0.423821 1.12172 -0.335382 -19.1059 -10.3833 -0.0 0.0 -0.0 9.88521 11.2872 -19.5597 -14.6889 26.3886 -66.8384 0.299452 8.43789 -0.0220899 27.8166 -0.12866 3.51632 -0.924056 -15.5243 -0.633405 0.0 0.0 0.0 -1.0715 10.922 -0.0903048 -35.1834 -0.189109 5.31234 21.0324 -3.05693 -2.90254 -22.5991 0.0 0.0 -0.0 0.0 -0.0 37.3662 -5.22108 -1.26333 -18.8436 -0.307607 -2.86233 -2.91455 21.6641 -0.496661 -1.01871 0.0 0.0 0.0 0.0 0.0 
3175.17 714.81 -869.185 -12.1587 48.5045 8.37228 0.180574 0.270896 2.03147 0.182859 0.141107 2.04458 0.188952 -0.285165 2.02952 0.183206 0.0388683 2.04908 10.2352 13.1798 -2.64869 11.3658 24.0086 -3.43734 -0.0 0.0 -0.0 -0.180468 19.31 1.98643 0.28386 -23.9091 63.3331 1.89029 -43.1143 0.746842 -9.77548 -0.445167 1.1663 -0.0842517 -22.1776 -9.98373 -0.0 0.0 -0.0 9.92467 12.3278 -19.6208 -13.2379 26.099 -67.5612 0.321774 9.05681 -0.0254848 28.3203 -0.115208 3.57926 -1.04824 -17.1272 -0.570809 0.0 0.0 0.0 0.588023 9.7634 0.188402 -37.0424 -0.289408 5.57977 15.3264 0.0722424 -2.15342 -23.2029 0.0 0.0 -0.0 0.0 -0.0 35.7639 -7.08371 -1.69818 -19.6004 -0.300179 -2.97821 -2.51795 19.053 -0.41802 1.93202 -0.0 -0.0 0.0 0.0 0.0 
3158.31 718.601 -881.43 -12.0474 45.6927 6.66884 0.190095 0.392174 2.57323 0.19375 0.227694 2.59295 0.205799 -0.313222 2.58402 0.196494 0.0986637 2.60105 10.895 14.7829 -2.48769 12.2966 26.3548 -3.428 -0.0 0.0 -0.0 -0.657043 19.6147 1.31777 -1.70835 -22.4415 63.0976 1.72711 -40.5454 0.637982 -10.8968 -0.508809 1.29485 0.149838 -25.002 -9.61798 -0.0 0.0 -0.0 10.6932 13.2337 -21.3004 -10.9062 26.2103 -67.882 0.382783 10.7371 -0.0359719 28.8589 -0.100211 3.64643 -0.984606 -18.0488 -1.35793 0.0 0.0 0.0 2.83349 11.8205 1.06956 -38.9128 -0.399052 5.84549 10.9329 2.7844 -1.55494 -23.8447 0.0 0.0 -0.0 0.0 -0.0 35.6104 -7.8507 -0.901566 -21.3247 -0.277543 -3.24182 -0.801803 20.2743 -0.134051 3.9154 -0.0 -0.0 0.0 0.0 0.0 
3141.19 723.236 -899.519 -11.9634 45.3803 6.72708 0.239452 0.536027 2.72174 0.2435 0.361816 2.75031 0.262909 -0.211646 2.76591 0.252306 0.227662 2.76464 11.1318 12.8981 -3.86314 12.4412 24.4824 -5.10903 -0.0 0.0 -0.0 -0.650885 18.7053 1.20836 -3.44011 -21.5659 63.3897 1.53501 -37.2468 0.517314 -9.46806 -0.42816 1.13084 0.502746 -27.1953 -8.24804 -0.0 0.0 -0.0 10.7166 13.07 -21.357 -8.09851 25.6169 -68.9745 0.409546 11.4686 -0.0411258 29.4489 -0.0830606 3.71983 -1.34708 -18.8245 0.480333 0.0 0.0 0.0 5.11155 8.70484 0.507452 -39.9744 -0.46514 5.9947 6.74989 4.6543 -0.971452 -24.8973 0.0 0.0 -0.0 0.0 -0.0 34.9333 -8.05016 -1.10205 -23.524 -0.237177 -3.57686 0.896549 21.2266 0.150572 4.82394 -0.0 -0.0 0.0 0.0 0.0 
3126.59 728.632 -912.962 -11.6656 45.6632 6.00823 0.215131 0.711965 2.99615 0.219974 0.51996 3.03534 0.250181 -0.11603 3.07732 0.237159 0.3712 3.05708 11.563 12.6866 -3.67256 12.8237 23.8869 -4.91663 -0.0 0.0 -0.0 -1.54967 18.2852 -0.209108 -3.72316 -21.3934 64.9097 1.37411 -34.241 0.423286 -9.73159 -0.442727 1.16124 0.964731 -28.6267 -5.90568 -0.0 0.0 -0.0 10.9361 14.6559 -21.7984 -6.52294 25.9956 -69.4396 0.453299 12.6561 -0.0502695 30.8802 -0.0383134 3.89717 -1.09863 -19.6341 -1.36376 0.0 0.0 0.0 6.56767 7.72452 0.159937 -42.4541 -0.630233 6.33837 4.1848 4.59504 -0.607003 -25.5452 0.0 0.0 -0.0 0.0 -0.0 33.8575 -8.60381 -0.0814538 -24.291 -0.220077 -3.69332 3.19461 22.7694 0.541194 6.10618 -0.0 -0.0 0.0 0.0 0.0 
3100.11 732.201 -930.111 -9.65933 45.4969 3.31754 0.0799779 0.785991 3.17109 0.0853831 0.582721 3.21461 0.121316 -0.0988004 3.26545 0.106681 0.417881 3.24014 12.4726 14.0016 -2.81568 13.8522 25.0444 -4.02629 -0.0 0.0 -0.0 -1.60039 17.5104 -0.407481 -7.42351 -20.4308 65.1115 1.29268 -32.6322 0.378416 -8.32066 -0.366376 0.997721 1.18172 -26.1685 -3.41968 -0.0 0.0 -0.0 11.6026 13.0449 -23.3487 -4.89891 25.1611 -68.5929 0.460094 12.8396 -0.0517689 31.0506 -0.0326896 3.91822 -1.66379 -20.5226 1.58446 0.0 0.0 0.0 7.95385 2.87603 2.29853 -47.9014 -1.04435 7.06672 6.28377 8.26479 -0.904046 -25.1167 0.0 0.0 -0.0 0.0 -0.0 29.3002 -5.11721 0.69231 -23.3299 -0.241257 -3.54735 5.52216 19.7055 0.900599 9.4043 -0.0 -0.0 0.0 0.0 0.0 
3077.2 731.253 -942.821 -7.55082 45.2554 1.17818 0.0424467 0.837177 3.38225 0.0485963 0.620389 3.42859 0.089469 -0.108382 3.48252 0.0728205 0.442642 3.45601 12.5295 14.5992 -3.01252 14.057 26.1735 -4.3426 -0.0 0.0 -0.0 -1.9881 18.3892 -0.857489 -8.654 -20.8672 66.0242 1.15871 -29.8544 0.308907 -8.26307 -0.363345 0.991008 1.37486 -25.65 -1.93946 -0.0 0.0 -0.0 11.3036 15.49 -22.5956 -3.36106 25.966 -69.8939 0.509245 14.1585 -0.0632429 31.5017 -0.0175049 3.97382 -1.84334 -20.9713 2.4302 0.0 0.0 0.0 9.43652 1.89343 1.93092 -52.0713 -1.4073 7.59629 3.36188 8.43652 -0.487777 -25.3125 0.0 0.0 -0.0 0.0 -0.0 27.0486 -9.09756 2.31572 -25.352 -0.193856 -3.85403 8.46724 20.395 1.37479 12.7511 -0.0 -0.0 0.0 0.0 0.0 
3058.96 731.332 -956.774 -6.86181 43.8713 -0.386271 0.0832969 0.828821 3.67101 0.0905972 0.593711 3.71623 0.133301 -0.191709 3.75841 0.11382 0.403842 3.74159 12.9682 17.0216 0.736876 14.3128 26.4976 0.343742 -0.0 0.0 -0.0 -2.88279 17.7614 -2.33766 -11.176 -20.0897 67.6515 1.12146 -29.0529 0.290589 -6.92179 -0.294685 0.833814 1.53411 -25.82 -0.990139 -0.0 0.0 -0.0 11.813 15.7939 -23.7409 -2.12753 26.6345 -69.2434 0.691807 18.9167 -0.115253 32.9542 0.0343635 4.15207 -1.36089 -20.5369 -0.209762 0.0 0.0 0.0 11.9716 4.0499 2.23226 -55.6323 -1.74727 8.02696 -0.550866 10.1504 0.0807553 -25.9828 0.0 0.0 -0.0 0.0 -0.0 26.0136 -6.8973 2.87084 -27.5401 -0.130398 -4.18382 12.3629 15.9425 1.90214 11.5278 -0.0 -0.0 0.0 0.0 0.0 
3048.14 739.112 -966.589 -6.57397 43.4841 -0.292404 0.103422 0.775455 3.73757 0.111032 0.536227 3.77926 0.150593 -0.260032 3.8082 0.130525 0.34422 3.80153 12.1323 16.9622 0.611301 13.4687 26.7557 0.263346 -0.0 0.0 -0.0 -2.60307 18.8761 -1.70146 -11.4753 -18.7104 67.8028 0.952873 -25.2681 0.213591 -6.65784 -0.281609 0.802696 1.71193 -20.9716 2.40373 -0.0 0.0 -0.0 12.2214 14.0969 -24.732 -0.69784 25.9619 -68.3886 0.879862 23.5501 -0.183416 33.9761 0.0735565 4.27666 -1.43654 -20.7093 0.158232 0.0 0.0 0.0 14.3254 5.25451 1.7544 -57.9488 -1.98261 8.2956 -2.69658 12.1332 0.397802 -27.2749 0.0 0.0 -0.0 0.0 -0.0 22.5068 -5.5135 1.57017 -22.8509 -0.250897 -3.47449 12.4487 15.0519 1.90194 11.6724 -0.0 -0.0 0.0 0.0 0.0 
3027.21 737.984 -975.067 -6.13807 43.5302 -1.05374 0.0572198 0.707907 3.7833 0.0650606 0.465911 3.8206 0.100396 -0.340931 3.83375 0.0799903 0.268358 3.83951 12.0219 17.19 0.537382 13.4091 27.2256 0.159524 -0.0 0.0 -0.0 -2.66543 17.2065 -2.10616 -14.4766 -21.0241 68.7653 0.859183 -23.0551 0.175236 -6.29801 -0.264013 0.760178 1.97629 -20.6376 4.30426 -0.0 0.0 -0.0 12.1319 15.4157 -24.4848 0.45983 27.1381 -67.6392 0.995561 26.2507 -0.232144 34.5521 0.0966283 4.34658 -1.35956 -21.2999 -0.560876 0.0 0.0 0.0 16.1801 10.0699 0.065298 -60.3887 -2.2421 8.56813 -1.19433 10.9305 0.175428 -27.1757 0.0 0.0 -0.0 0.0 -0.0 21.7444 -10.3261 4.26548 -24.7202 -0.209827 -3.75839 16.2023 22.3673 2.59108 12.504 -0.0 -0.0 0.0 0.0 0.0 
